# xmcd CD database file
#
# Track frame offsets:
#	150
#	29528
#	65162
#	92108
#	127770
#	144330
#	153106
#	170222
#	202783
#	235518
#	265216
#	292450
#	318379
#
# Disc length: 4346 seconds
#
# Revision: 0
# Processed by: cddbd v1.5.1PL2 Copyright (c) Steve Scherf et al.
# Submitted via: CDex 1.51
#
DISCID=ba10f80d
DTITLE=Joonatan Rautio - Medicine
DYEAR=2005
DGENRE=Jazz
TTITLE0=Night Walk
TTITLE1=Moving On
TTITLE2=You Are Everything To Me
TTITLE3=The Ground
TTITLE4=Change
TTITLE5=Usva
TTITLE6=Saari
TTITLE7=Dégo
TTITLE8=Sunday School
TTITLE9=Retroduction
TTITLE10=Medicine
TTITLE11=Change Continues
TTITLE12=Koti
EXTD=YEAR: 2005
EXTT0=
EXTT1=
EXTT2=
EXTT3=
EXTT4=
EXTT5=
EXTT6=
EXTT7=
EXTT8=
EXTT9=
EXTT10=
EXTT11=
EXTT12=
PLAYORDER=
